<svg xmlns="http://www.w3.org/2000/svg" x="0px" y="0px" width="240" height="240" viewBox="0 0 48 48">
<path fill="#fad500" d="M42,44v-2c0,0-1-0.6-1-2s1-2,1-2v-4c0,0-1-0.6-1-2c0-1.4,1-2,1-2v-4c0,0-1-0.6-1-2s1-2,1-2v-4c0,0-1-0.6-1-2	s1-2,1-2v-4c0,0-1-0.6-1-2s1-2,1-2V4c-1-0.2-1.8-1-2-2h-2c0,0-0.6,1-2,1s-2-1-2-1h-4c0,0-0.6,1-2,1s-2-1-2-1h-4c0,0-0.6,1-2,1	s-2-1-2-1h-4c0,0-0.6,1-2,1s-2-1-2-1H8C7.8,3,7,3.8,6,4v2c0,0,1,0.6,1,2s-1,2-1,2v4c0,0,1,0.6,1,2s-1,2-1,2v4c0,0,1,0.6,1,2	s-1,2-1,2v4c0,0,1,0.6,1,2c0,1.4-1,2-1,2v4c0,0,1,0.6,1,2s-1,2-1,2v2c1,0.2,1.8,1,2,2h2c0,0,0.6-1,2-1s2,1,2,1h4c0,0,0.6-1,2-1	s2,1,2,1h4c0,0,0.6-1,2-1s2,1,2,1h4c0,0,0.6-1,2-1s2,1,2,1h2C40.2,45,41,44.2,42,44z"></path><path fill="#ffa000" d="M12,8h24v32H12V8z"></path><path fill="none" stroke="#ffca28" d="M12,8h24v32H12V8z"></path><path fill="#e3a600" d="M37,41H11V7h26V41z"></path>
</svg>