<svg xmlns="http://www.w3.org/2000/svg" x="0px" y="0px" width="500" height="500" viewBox="0 0 50 50">
<path fill="#99c93c" d="M39.589,41.601c1.241-1.627,2.313-3.405,3.324-5.183c0.17-0.299-0.245-0.984-0.36-1.123 c-2.818-3.389-5.648-6.771-8.551-10.088c1.139-1.181,2.27-2.37,3.389-3.57c1.194-1.28,2.379-2.569,3.559-3.861 c1.001-1.095,2.144-2.173,2.054-3.785c-0.095-1.714-1.258-3.043-2.563-4.045c-1.623-1.246-3.393-2.325-5.163-3.344 c-0.297-0.172-0.971,0.232-1.107,0.344c-3.245,2.687-6.484,5.387-9.662,8.154c-1.176-1.143-2.371-2.265-3.595-3.357 c-1.259-1.124-2.533-2.25-3.873-3.276c-1.072-0.82-2.297-1.507-3.682-1.416c-1.6,0.106-3.158,0.968-4.406,1.909 c-0.861,0.649-1.621,1.413-2.266,2.267c-0.767,1.016-0.82,2.426-0.102,3.497c2.34,3.49,4.934,6.799,7.691,9.97 c-1.08,1.115-2.142,2.247-3.174,3.407c-1.098,1.234-2.199,2.482-3.199,3.797c-0.8,1.051-1.467,2.256-1.361,3.627 c0.122,1.584,0.992,3.134,1.936,4.379c0.652,0.859,1.415,1.619,2.267,2.265c1.014,0.769,2.408,0.837,3.46,0.138 c3.424-2.275,6.667-4.802,9.771-7.493c1.243,1.202,2.497,2.394,3.761,3.574c1.307,1.221,2.623,2.433,3.942,3.64 c1.118,1.024,2.22,2.191,3.849,2.118C37.259,44.07,38.591,42.909,39.589,41.601z"></path><path fill="#fff" d="M13.446,12.171c1.161,0.742,2.288,1.532,3.385,2.365c0.125,0.095,0.088,0.065-0.015-0.012 c0.065,0.049,0.128,0.099,0.192,0.149c0.128,0.1,0.255,0.2,0.381,0.302c0.269,0.215,0.535,0.433,0.8,0.653 c0.544,0.454,1.077,0.921,1.602,1.398c0.58,0.528,1.556,0.616,2.121,0c0.528-0.575,0.62-1.558,0-2.121 c-2.161-1.965-4.491-3.751-6.951-5.324c-0.662-0.423-1.684-0.159-2.052,0.538C12.515,10.861,12.739,11.719,13.446,12.171 L13.446,12.171z"></path><path fill="#231f20" d="M33.252,25.486c-0.71,0.864-1.485,1.673-2.318,2.419c-0.195,0.175-0.192,0.531,0,0.707 c0.209,0.191,0.499,0.187,0.707,0c0.833-0.746,1.608-1.555,2.318-2.419c0.166-0.202,0.212-0.512,0-0.707 C33.776,25.318,33.43,25.271,33.252,25.486L33.252,25.486z"></path><path fill="#231f20" d="M16.488,21.444c-0.777,0.667-1.493,1.402-2.141,2.195c-0.086,0.106-0.146,0.212-0.146,0.354 c0,0.123,0.054,0.269,0.146,0.354c0.183,0.168,0.531,0.216,0.707,0c0.647-0.793,1.364-1.528,2.141-2.195 c0.199-0.171,0.189-0.534,0-0.707C16.983,21.249,16.701,21.261,16.488,21.444L16.488,21.444z"></path><path fill="#99c93c" d="M45.957,30.202c-0.118-0.046-0.236-0.092-0.354-0.139c-0.032-0.013-0.377-0.157-0.2-0.081 c-0.233-0.1-0.464-0.203-0.693-0.311c-0.444-0.208-0.882-0.431-1.311-0.668c-0.873-0.482-1.712-1.024-2.515-1.617 c-0.422-0.312-1.134-0.084-1.368,0.359c-0.276,0.522-0.092,1.035,0.359,1.368c1.705,1.26,3.573,2.256,5.55,3.018 c0.489,0.189,1.118-0.208,1.23-0.698C46.785,30.86,46.48,30.404,45.957,30.202L45.957,30.202z"></path><path fill="#99c93c" d="M47.548,24.142c-2.184-0.093-4.366-0.225-6.545-0.394c-0.523-0.041-1.023,0.489-1,1 c0.026,0.576,0.44,0.957,1,1c2.179,0.169,4.361,0.3,6.545,0.394c0.523,0.022,1.023-0.476,1-1 C48.523,24.581,48.109,24.166,47.548,24.142L47.548,24.142z"></path><path fill="#99c93c" d="M41.426,22.82c0.855-0.442,1.709-0.884,2.564-1.326c0.465-0.241,0.641-0.93,0.359-1.368 c-0.306-0.474-0.87-0.616-1.368-0.359c-0.855,0.442-1.709,0.884-2.564,1.326c-0.465,0.241-0.641,0.93-0.359,1.368 C40.363,22.936,40.928,23.077,41.426,22.82L41.426,22.82z"></path><path fill="#429ad4" d="M4.574,32.263c-0.089-0.324-0.178-0.649-0.267-0.973c-0.045-0.166-0.07-0.37-0.144-0.524 c-0.014-0.05-0.027-0.1-0.041-0.15c-0.708,0.441-0.871,0.652-0.49,0.631c-0.073-0.01-0.076-0.008-0.007,0.006 c0.071,0.017,0.142,0.036,0.212,0.057C4,31.355,4.162,31.4,4.325,31.445c0.379,0.105,0.758,0.209,1.137,0.314 c0.944,0.26,1.709-0.977,0.973-1.671c-0.304-0.287-0.554-0.613-0.713-0.999c-0.088-0.214-0.156-0.458-0.188-0.688 c-0.005-0.034-0.014-0.195-0.016-0.25c0,0.001,0.014-0.383-0.011-0.197c0.007-0.034,0.014-0.068,0.021-0.102 c0.036-0.118,0.039-0.133,0.01-0.045c0.058,0.057-0.709,0.059-0.452,0.214c0.191,0.116,0.449,0.18,0.653,0.273 c0.564,0.255,1.117,0.534,1.661,0.831c0.391,0.214,0.892,0.164,1.212-0.156c0.338-0.338,0.338-0.8,0.156-1.212 c-0.244-0.554-0.458-1.12-0.65-1.694c-0.095-0.285-0.191-0.572-0.263-0.864c-0.026-0.103-0.049-0.203-0.058-0.308 c-0.016-0.198,0.088-0.27-0.067-0.123c-0.147,0.086-0.294,0.171-0.441,0.257c0.044-0.008,0.087-0.016,0.131-0.025 c-0.177,0-0.354,0-0.532,0c1.22,0.203,2.427,0.717,3.515,1.29c1.138,0.6,2.15-1.126,1.009-1.727 c-0.785-0.414-1.602-0.771-2.441-1.059c-0.857-0.294-2.149-0.858-2.823,0.034c-0.578,0.765-0.34,1.854-0.078,2.69 c0.272,0.865,0.605,1.708,0.97,2.538c0.456-0.456,0.912-0.912,1.368-1.368c-0.801-0.438-1.624-0.829-2.467-1.179 c-0.948-0.394-1.906-0.089-2.277,0.907c-0.552,1.483,0.272,3.357,1.355,4.378c0.324-0.557,0.649-1.114,0.973-1.671 c-0.568-0.157-1.136-0.319-1.706-0.47c-0.509-0.135-1.062-0.183-1.535,0.099c-1.172,0.697-0.38,2.341-0.107,3.336 C2.986,34.034,4.916,33.508,4.574,32.263L4.574,32.263z"></path>
</svg>